<svg xmlns="http://www.w3.org/2000/svg" viewBox="0 0 793.5 151.6">
  <path fill="#ed1c24" d="m687 33.6 28.2 60h-55.7l27.5-60Zm-105.3 116h48.7l12.8-25.2h88.3l13.6 25.2h48.5L715.4.6h-56.7l-77 149ZM426.2 34.8h77.1c8 0 12.8 3 12.8 11.2s-4.7 11-12.8 11h-77.1V34.9Zm0 51.8h78.1c9.4 0 15.7 2.1 15.7 11.8 0 8.2-6.3 10.4-15.7 10.4h-78.1V86.6Zm-43.6 63h138.8c25 0 43.4-6.5 43.4-37.8 0-21.5-7.1-38.2-26.1-40.6v-.6c12.1-3.5 21-8.2 21-32.6 0-28-17-37.4-51.7-37.4H382.6v149m-247.1 0H179V.6h-43.5v57.3h-92V.6H0v149h43.6v-54h91.8v54m73.4-43c0 27 6.2 45 56.4 45h11.5c24 0 34 .3 38.3-12.7h.4v11h37.2V0h-39.7v59h-.4c-2.5-16.5-30-16.3-35.6-16.3h-11.7c-50.2 0-56.4 18-56.4 44.9v19ZM238.5 91c0-11.8 1.9-18.4 20.9-18.4h23.3c15.7 0 24 3.5 24 19.5v10.3c0 16-8.3 19.5-24 19.5h-23.3c-19 0-20.9-6.6-20.9-18.5V91" />
</svg>
