<svg xmlns="http://www.w3.org/2000/svg" viewBox="0 0 793.8 164.6">
  <path d="M531.4 63.4h3.7v16.7c0 5.4 1.8 6.4 5.4 6.4 1.7 0 3.2-.1 4.3-.4v-4l-1.9.2c-1.8 0-2.4-.8-2.4-2.9v-16h4.3v-4h-4.3v-7.6H535v7.7h-3.7v4ZM520 50.3v5.4h5.4v-5.4H520Zm0 9.2v26.7h5.4V59.5H520Zm-21.6 10.4v-.6c0-3.5 1-6.9 4.5-6.9 3 0 4.1 2.6 4.1 6V70h-8.6Zm14 3.6v-2.8c0-7.5-2-12-9.4-12-8.4 0-10 7.5-10 14.5 0 12.4 5.5 13.7 9.9 13.7 5.8 0 9.4-3.7 9.4-9.6h-5.1c0 1.6-.5 6-4.3 6-4 0-4.4-4.6-4.4-8.2v-1.5h14Zm-40.4-.4c0-6.4.8-10 4.9-10 3 0 4.2 2.4 4.2 9.7 0 6-.8 9.9-4.5 9.9S472 78.9 472 73Zm-5 13.1h5V83h.1c.7 1.7 2 4 5.9 4 6.2 0 8.7-5.3 8.7-14.5 0-11.9-4.1-13.8-8.2-13.8-2.9 0-5 1.5-6 3.9h-.2V50.7H467v35.5Zm-18.7 0h5.4v-16c0-5 3-6 5.4-6l2.2.2V59l-1.3-.2c-3 0-5 1.9-6.2 4.8h-.1v-4.2h-5.4v26.8Zm-31.8 0h6l2.2-8.7h10.4l2.2 8.7h6l-9.4-35.5h-7.3l-10 35.5Zm9.3-13.2 4.2-17.5h.1l4 17.5h-8.3Zm-38 13.2h5.4v-16c0-5 3-6 5.4-6l2.2.2V59l-1.2-.2c-3 0-5 1.9-6.3 4.8v-4.2h-5.4v26.8Zm-13.1 0h5V59.4h-5.3v18.8c0 3-2.1 4.5-4.4 4.5s-3.6-1-3.6-4V59.4H361v18.8c0 6.9 2.7 8.7 6.7 8.7 2.8.1 5.4-1.4 6.8-3.8h.2v3.1Zm-10.8-36.6V55h4.8v-5.4h-4.8Zm8.2 0V55h4.8v-5.4h-4.8ZM346 86.2h5.3V63.4h4.4v-4h-4.4v-2.3c0-1.8 1-2.5 2.9-2.5h1.5v-4.2l-3-.1c-4.3 0-6.7 1.6-6.7 6.7v2.5h-4v4h3.7v22.7Zm-35.2 0h5.4v-16c0-5 2.9-6 5.3-6l2.3.2V59l-1.3-.2c-3 0-5 1.9-6.2 4.8h-.1v-4.2h-5.4v26.8Zm-13.2 0h5V59.4h-5.3v18.8c0 3-2.1 4.5-4.4 4.5s-3.6-1-3.6-4V59.4h-5.4v18.8c0 6.9 2.7 8.7 6.7 8.7 2.8.1 5.4-1.4 6.8-3.8h.2v3.1Zm-32.8-22.8h3.6v16.7c0 5.4 1.8 6.4 5.4 6.4 1.7 0 3.2-.1 4.4-.4v-4l-2 .2c-1.8 0-2.4-.8-2.4-2.9v-16h4.4v-4h-4.4v-7.6h-5.4v7.7h-3.6v4Zm-24.5 22.8h5.3v-18c0-3.4 2.1-5.2 4.3-5.2 2.7 0 3.7 1.4 3.7 4.9v18.3h5.4V66c0-5.4-2.6-7.2-6.7-7.2a7.6 7.6 0 0 0-6.8 3.8h-.2v-3.1h-5v26.7ZM218.8 70v-.6c0-3.5 1-6.9 4.5-6.9 3 0 4.1 2.6 4.1 6V70h-8.6Zm14 3.6v-2.8c0-7.5-2-12-9.5-12-8.4 0-9.9 7.5-9.9 14.5 0 12.4 5.5 13.7 9.8 13.7 5.8 0 9.4-3.7 9.4-9.6h-5c0 1.6-.5 6-4.3 6-4 0-4.5-4.6-4.5-8.2v-1.5h14ZM192.3 72c0-5 .6-9 4.5-9s4.3 4.9 4.3 9.2-.5 9.6-4.6 9.6-4.2-5.2-4.2-9.8Zm-4.7 16.5c0 2.2 1 6.9 8.9 6.9 7.2 0 10-4 10-10.5V59.4h-5.1v3.3h-.1c-.5-1.9-2.8-4-5.9-4-7.6 0-8.5 8-8.5 13.8 0 7.4 1.8 13.5 8 13.5 2.6 0 5-1.3 6-3.7h.2v4.4c0 3-1.8 5-4.5 5-2.4 0-4-1.5-4-3.2h-5Zm-13.8-12c0 4-1.6 6.5-4.8 6.5-2.2 0-3.3-1.9-3.3-4 0-2 .6-3.7 2.1-4.4 1.6-.8 4.6-1.4 6-2.5v4.5Zm5-11.2c0-4.7-3.7-6.6-8.4-6.6-7 0-9.4 3.2-9.4 8.9h5c0-2.6.6-5.2 4.1-5.2 2.9 0 3.7 1.6 3.7 4s-1.2 3-3.1 3.5l-4.2 1.1c-3.6 1.2-6.2 2.4-6.2 8.4 0 5.1 2.7 7.5 7 7.5a7 7 0 0 0 6.6-4c.3 2.7 2.2 3.6 4.6 3.6 1 0 2-.3 2.7-.6v-3.5l-1 .1c-.7 0-1.3-.8-1.3-1.8V65.3Zm-25 2V66c0-3.4-1.6-7.4-8.4-7.4-5.5 0-9.1 2.4-9.1 7.4 0 4.3 1.7 6.3 5.7 7.7l4.4 1.6c1.9.6 3 2 3 4 0 2.4-1.5 3.8-4.5 3.8s-4.1-1.6-4.1-4.7v-.9H136v1c0 5.2 2 8.3 8.8 8.3 5.4 0 9.6-2.4 9.6-8.1 0-4.3-1.9-6.4-5.8-7.8L145 70c-2.8-1-3.7-1.9-3.7-4 0-2.5 1.7-3.5 3.8-3.5 2.8 0 3.5 2 3.5 4.2v.7h5Zm-38 2.6v-.6c0-3.5 1-6.9 4.5-6.9 3 0 4.1 2.6 4.1 6V70h-8.6Zm14 3.6v-2.8c0-7.5-2-12-9.4-12-8.4 0-10 7.5-10 14.5 0 12.4 5.5 13.7 9.9 13.7 5.8 0 9.3-3.7 9.3-9.6h-5c0 1.6-.5 6-4.3 6-4 0-4.5-4.6-4.5-8.2v-1.6h14ZM98 73.1c0 5.8-.8 9.6-4.5 9.6s-4.5-3.9-4.5-10c0-7.2 1-9.7 4.1-9.7 4.2 0 4.9 3.7 4.9 10.1Zm0 13.1h5V50.7h-5.3v11.9h-.1a6.2 6.2 0 0 0-6-3.8c-4.1 0-8.3 1.8-8.3 13.7 0 9.2 2.5 14.4 8.8 14.4 3.8 0 5.1-2.2 5.8-4h.1v3.3Zm-40.5 0h5.3v-18c0-3.4 2.1-5.2 4.3-5.2 2.7 0 3.7 1.4 3.7 4.9v18.3h5.4V66c0-5.4-2.6-7.3-6.7-7.3a7.6 7.6 0 0 0-6.8 3.9h-.2v-3.2h-5v26.8Zm-13.2 0h5V59.4H44v18.8c0 3-2.1 4.5-4.4 4.5s-3.6-1-3.6-4V59.4h-5.4v18.8c0 6.9 2.7 8.7 6.7 8.7 2.8.1 5.4-1.4 6.8-3.8h.2v3.1Zm-43 0h11.2c6.7 0 11-3.8 11-9.7s-2.5-8.3-6.4-9v-.1c3.5-1.1 5.2-3.8 5.2-8.1 0-6.3-4.3-8.6-9.5-8.6H1.3v35.5ZM7 82V69.7h5.2c3.3 0 5.6 2.1 5.6 6 0 4-1.9 6.3-5.2 6.3H7Zm0-16.3V55h4c3.1 0 5.6.8 5.6 5 0 3.4-1.7 5.7-5.2 5.7H7m312.2-30.2h5.4v-16c0-5 3-6 5.3-6l2.3.2V8.3a4 4 0 0 0-1.3-.2c-3 0-5 1.9-6.2 4.8h-.1V8.8H319v26.8Zm-21.4-16.3v-.6c0-3.5 1.1-6.9 4.5-6.9 3 0 4.1 2.6 4.1 6v1.5h-8.5Zm14 3.6V20c0-7.5-2-12-9.4-12-8.4 0-10 7.5-10 14.5 0 12.4 5.5 13.7 9.9 13.7 5.8 0 9.4-3.7 9.4-9.6h-5.1c0 1.6-.5 6-4.3 6-4 0-4.5-4.6-4.5-8.2v-1.6h14Zm-31.8-.4c0 5.8-.8 9.6-4.5 9.6s-4.5-3.9-4.5-10c0-7.2 1-9.7 4.2-9.7 4 0 4.8 3.7 4.8 10.1Zm0 13.1h5V0h-5.3v11.9c-1-2.4-3.3-3.8-6.1-3.8-4.1 0-8.3 1.8-8.3 13.7 0 9.2 2.5 14.4 8.8 14.4 3.8 0 5.1-2.2 5.8-4h.1v3.4Zm-50-16.3v-.6c0-3.5 1-6.9 4.5-6.9 3 0 4.1 2.6 4.1 6v1.5H230Zm14 3.6V20c0-7.5-2-12-9.5-12-8.4 0-9.9 7.5-9.9 14.5 0 12.4 5.4 13.7 9.8 13.7 5.8 0 9.4-3.7 9.4-9.6h-5c0 1.6-.5 6-4.3 6-4 0-4.5-4.6-4.5-8.2v-1.6h14ZM211.6 0v35.5h5.4V0h-5.4Zm-13.4 35.5h5V8.8H198v18.7a4.2 4.2 0 0 1-4.4 4.5c-2.3 0-3.6-1-3.6-4V8.8h-5.4v18.7c0 7 2.7 8.7 6.7 8.7 2.8.1 5.4-1.4 6.8-3.8h.2v3.1Zm-40.6 0h5.4v-18c0-3.4 2-5.2 4.3-5.2 2.6 0 3.7 1.4 3.7 4.9v18.4h5.4V15.2c0-5.4-2.6-7.2-6.7-7.2a7.7 7.7 0 0 0-6.5 3.7l-.2-.1V0h-5.4v35.5ZM146 25.8c0 4-1.1 6.5-4.1 6.5-3.9 0-4.6-4.2-4.6-10.1S138 12 141.8 12c3.1 0 3.8 3.2 3.8 5.7h5.4c0-3.4-1.2-9.7-9.2-9.6-7.8 0-10 5.8-10 14s2.2 14.1 10 14.1c6.6 0 8.8-4 9.1-10.4h-5Zm-20.6-9.2v-1.2c0-3.4-1.5-7.3-8.3-7.3-5.5 0-9.1 2.3-9.1 7.3 0 4.3 1.6 6.4 5.7 7.8l4.3 1.5c2 .6 3 2 3 4 0 2.4-1.5 3.9-4.4 3.9-3 0-4.2-1.7-4.2-4.8v-.9h-4.7v1c0 5.2 2 8.3 8.7 8.3 5.5 0 9.6-2.4 9.6-8.1 0-4.2-1.8-6.4-5.8-7.7l-3.4-1.2c-2.8-1-3.8-1.9-3.8-4 0-2.4 1.7-3.4 3.8-3.4 2.8 0 3.6 2 3.6 4v.8h5ZM82 35.6h5.3v-18c0-3.5 2.1-5.3 4.3-5.3 2.7 0 3.7 1.4 3.7 4.9v18.4h5.4V15.2c0-5.4-2.6-7.2-6.6-7.2a7.7 7.7 0 0 0-6.6 3.7l-.2-.1V0H82v35.5Zm-12-9.9c0 4-1 6.5-4 6.5-4 0-4.6-4.2-4.6-10.1S62.2 12 66 12c3.2 0 3.9 3.2 3.9 5.7h5.3C75.2 14.3 74 8 66 8c-7.7 0-10 5.8-10 14s2.3 14.1 10 14.1c6.6 0 8.8-4 9.2-10.4H70ZM35.5 22c0-5.9.7-10 4.5-10s4.7 4.1 4.7 10c0 6.9-.7 10.2-4.7 10.2s-4.5-3.3-4.5-10.1Zm-5.4 0c0 8.4 2.5 14.1 10 14.1s10-5.7 10-14S47.7 8 40 8s-10 5.7-10 14ZM1 35.5h5.7V19H17v16.6h5.7V0H17v14.2H6.6V0H.9v35.5" class="cls-1"/>
  <path stroke="#000" stroke-miterlimit="10" stroke-width="4.7" d="M0 109.6h793.8"/>
  <path d="M5 126.3v21.9c0 3.8 1.6 5.5 4.5 5.5s4.4-1.7 4.4-5.5v-22h4.7v21.6c0 7-3.4 9.6-9.1 9.6s-9.2-2.6-9.2-9.6v-21.5h4.8m19.5 7.5h4.2v2.7h.2c1.1-2 3.4-3.4 5.8-3.3 3.4 0 5.6 1.6 5.6 6.2v17.4h-4.6V141c0-3-.8-4.1-3-4.1-2 0-3.7 1.5-3.7 4.5v15.4h-4.5v-23m22 23v-23h4.6v23h-4.6Zm0-26.3V126h4.6v4.7h-4.6Zm9 3.3h4.8l4 18.1 3.6-18.1h4.8l-6 23h-5.3l-6-23m32.6 9v-1.3c0-3-1-5.1-3.5-5.1-2.9 0-3.8 2.9-3.8 5.9v.4h7.3Zm-7.3 3.1v1.3c0 3.1.4 7 3.8 7s3.6-3.7 3.6-5.1h4.3c0 5-3 8.3-8 8.3-3.6 0-8.2-1.1-8.2-11.8 0-6 1.3-12.4 8.4-12.4 6.2 0 8 3.9 8 10.3v2.4h-12M98 133.8h4.6v3.6c1-2.6 2.7-4.2 5.3-4.2.5 0 .8 0 1 .2v4.7c-.5-.2-1.2-.3-1.8-.3-2 0-4.5 1-4.5 5.2v13.8H98v-23m24.6 6.7v-.6c0-1.8-.6-3.5-3-3.5-1.7 0-3.2.8-3.2 3 0 1.8.8 2.5 3.2 3.3l3 1c3.3 1.2 4.8 3 4.8 6.7 0 5-3.5 7-8 7-5.8 0-7.5-2.7-7.5-7.1v-.9h4v.7c0 2.7 1 4.1 3.6 4.1s3.6-1.2 3.6-3.3c0-1.8-.8-2.9-2.4-3.4l-3.7-1.3c-3.4-1.2-4.8-3-4.8-6.7 0-4.3 3-6.3 7.7-6.3 5.7 0 7 3.4 7 6.3v1h-4.3m10 16.3v-23h4.6v23h-4.5Zm0-26.3V126h4.6v4.6h-4.5Zm8.8 3.3h3.1v-6.5h4.6v6.5h3.6v3.4h-3.6V151c0 1.8.5 2.5 2 2.5.7 0 1.2 0 1.6-.2v3.5c-1 .2-2.2.3-3.6.3-3 0-4.6-.8-4.6-5.5v-14.3h-3v-3.4m54.1 20.1c3.3 0 3.9-2.8 3.9-8.7 0-5-.6-8.7-4-8.7s-3.8 3.6-3.8 8.7c0 5.9.6 8.7 3.9 8.7Zm0-20.8c6.5 0 8.4 5 8.4 12.1s-2.2 12.1-8.5 12.1-8.3-5-8.3-12.1 1.8-12.1 8.4-12.1m15 4h-3.2v-3.4h3.1v-2.1c0-4.4 2-5.8 5.8-5.8 1 0 1.8 0 2.4.2v3.5h-1.2c-1.7 0-2.4.7-2.4 2.2v2h3.6v3.4h-3.6v19.6h-4.6v-19.6m34.5 8.2-3.5-15-3.6 15h7Zm-6.4-19.1h6.1l7.9 30.5h-5l-1.8-7.5H237l-2 7.5h-5l8.6-30.5m25.6 27.4c2.6 0 3.8-2 3.8-8.3 0-5.2-.7-8.5-3.8-8.5s-3.9 3.2-3.9 8.1c0 5.6.7 8.7 4 8.7Zm-8.1-19.9h4.2v2.8h.1c1-2 2.6-3.4 5.1-3.4 5.2 0 7.3 4.5 7.3 12.4 0 9.7-3.9 11.8-7 11.8a5.2 5.2 0 0 1-5.1-3.3v10.2H256v-30.5m30 20c2.5 0 3.7-2 3.7-8.4 0-5.2-.7-8.5-3.8-8.5s-3.8 3.2-3.8 8.1c0 5.6.7 8.7 3.8 8.7Zm-8.2-20h4.3v2.8c1-2 2.7-3.4 5.1-3.4 5.2 0 7.3 4.5 7.3 12.4 0 9.7-3.9 11.8-7 11.8a5.2 5.2 0 0 1-5-3.3h-.2v10.2H278v-30.5m26.6 23v-30.5H300v30.5h4.5Zm6.4 0v-23h4.6v23H311Zm0-26.2v-4.7h4.6v4.7H311Zm22 12.1v-1.2c0-3-1-5.1-3.5-5.1-2.9 0-3.8 2.9-3.8 5.9v.4h7.3Zm-7.3 3.2v1.3c0 3.1.4 7 3.8 7s3.6-3.7 3.6-5.1h4.3c0 5-3 8.3-8 8.3-3.6 0-8.2-1.1-8.2-11.8 0-6 1.2-12.4 8.3-12.4 6.3 0 8 3.9 8 10.3v2.4h-11.8m24.6-9c-2.6 0-3.5 2.1-3.5 8.3 0 5.2.7 8.5 3.8 8.5s3.8-3.2 3.8-8.1c0-5.6-.6-8.7-4-8.7Zm4.1 17c-.6 1.6-1.8 3.5-5 3.5-5.3 0-7.4-4.5-7.4-12.4 0-10.2 3.5-11.8 7-11.8a5.3 5.3 0 0 1 5.1 3.3v-10.2h4.6v30.5h-4.3V154m21.8-27.7h4.8v26.4h11.6v4.1H376v-30.5m31.1 18.4c-1.2.9-3.7 1.5-5 2-1.3.7-1.9 2.1-1.9 3.8 0 2 1 3.5 2.8 3.5 2.8 0 4.1-2.1 4.1-5.5v-3.8Zm4.3 7.3c0 .9.5 1.6 1.1 1.6l.8-.1v3a9 9 0 0 1-2.2.6c-2 0-3.7-.9-3.8-3h-.1a5.8 5.8 0 0 1-5.6 3.3c-3.6 0-5.9-2-5.9-6.5 0-5 2.2-6.2 5.2-7.2l3.6-1c1.6-.4 2.6-1 2.6-3s-.7-3.3-3.1-3.3c-3 0-3.4 2.1-3.4 4.4h-4.3c0-4.9 2-7.6 8-7.6 3.9 0 7 1.6 7 5.6V152m14.4 1.7c3.2 0 3.9-3.3 3.9-8.5 0-6.2-1-8.3-3.6-8.3-3.4 0-4 3.1-4 8.6 0 5 .6 8.2 3.7 8.2Zm-8-27.4h4.5v10.2c.9-2 3-3.4 5.2-3.3 3.4 0 7 1.6 7 11.8 0 8-2.2 12.4-7.4 12.4-3.3 0-4.4-2-5-3.4v2.8h-4.3v-30.5M447 154c3.3 0 3.9-2.8 3.9-8.7 0-5-.6-8.7-3.9-8.7s-3.9 3.6-3.9 8.7c0 5.9.6 8.7 3.9 8.7Zm0-20.8c6.6 0 8.4 5 8.4 12.1s-2.1 12.1-8.4 12.1-8.4-5-8.4-12.1 1.9-12.1 8.4-12.1m25.1 21h-.1a6.5 6.5 0 0 1-5.8 3.2c-3.4 0-5.6-1.6-5.6-7.5v-16h4.5v16.4c0 2.6 1.1 3.4 3 3.4s3.8-1.3 3.8-3.8v-16h4.5v22.9h-4.3v-2.7m10.3-20.3h4.6v3.6c1-2.6 2.7-4.2 5.3-4.2.5 0 .8 0 1 .2v4.7l-1.8-.3c-2 0-4.5 1-4.5 5.2v13.8h-4.6v-23m30.6 13.6v.7c0 3.7 1.6 5.6 5 5.6 2.3.2 4.3-1.7 4.5-4v-.4c0-3.2-1.6-4.6-4.3-5.4l-3.3-1.2c-4.3-1.7-6.2-4-6.2-8.4 0-5.5 3.7-8.6 9.3-8.6 7.6 0 8.4 4.9 8.4 8v.7h-4.7v-.6c0-2.8-1.2-4.4-4.2-4.4-2 0-4 1.1-4 4.4 0 2.6 1.2 3.9 4.4 5.1l3.3 1.2c4.2 1.6 6 4 6 8.1 0 6.5-3.8 9.2-9.8 9.2-7.5 0-9.1-5-9.1-9.3v-.7h4.7m17.5-13.6h3v-6.5h4.6v6.5h3.7v3.4h-3.7V151c0 1.8.5 2.5 2 2.5l1.7-.1v3.4c-1 .2-2.2.4-3.7.4-3 0-4.5-.9-4.5-5.6v-14.3h-3.1v-3.4m26.8 20.3a6.4 6.4 0 0 1-5.9 3.3c-3.3 0-5.6-1.6-5.6-7.5v-16h4.5v16.4c0 2.6 1.2 3.4 3 3.4s3.8-1.3 3.8-3.8v-16h4.5v22.9h-4.3v-2.7m17.8-17.2c-2.6 0-3.6 2.1-3.6 8.3 0 5.2.7 8.5 3.9 8.5s3.8-3.2 3.8-8.1c0-5.6-.6-8.7-4.1-8.7Zm4 17c-.6 1.6-1.7 3.5-5 3.5-5.2 0-7.3-4.5-7.3-12.4 0-10.2 3.5-11.8 7-11.8a5.3 5.3 0 0 1 5 3.3h.1v-10.2h4.5v30.5h-4.2V154m10.5 2.8v-23h4.5v23h-4.5Zm0-26.3V126h4.5v4.7h-4.5Zm22 12.2v-1.2c0-3-1-5.1-3.6-5.1-2.9 0-3.7 2.9-3.7 5.9v.4h7.2Zm-7.3 3.2v1.3c0 3.1.3 7 3.7 7s3.6-3.7 3.6-5.1h4.3c0 5-3 8.3-7.9 8.3-3.7 0-8.3-1.1-8.3-11.8 0-6 1.3-12.4 8.4-12.4 6.3 0 8 3.9 8 10.3v2.4h-11.8m26.9-5.4v-.6c0-1.8-.6-3.5-3-3.5-1.8 0-3.2.8-3.2 3 0 1.8.8 2.5 3.2 3.3l2.9 1c3.3 1.2 4.9 3 4.9 6.7 0 5-3.6 7-8.1 7-5.7 0-7.4-2.7-7.4-7.1v-.9h4v.7c0 2.7.9 4.1 3.5 4.1s3.7-1.2 3.7-3.3c0-1.8-.9-2.9-2.5-3.4l-3.7-1.3c-3.4-1.2-4.8-3-4.8-6.7 0-4.3 3-6.3 7.7-6.3 5.8 0 7 3.4 7 6.3v1h-4.2m-471.5-6.7 4 17.2 3.6-17.2h4.8l-6.2 23.8c-1.8 6.3-3.3 7.1-8 7h-1.7v-3.8l1.4.2c1.6 0 2.6-.4 3-1.8l.7-2-6.4-23.4h4.8"/>
</svg>
